<?xml version="1.0" standalone="no"?>
<!DOCTYPE svg PUBLIC "-//W3C//DTD SVG 20010904//EN"
 "http://www.w3.org/TR/2001/REC-SVG-20010904/DTD/svg10.dtd">
<svg version="1.0" xmlns="http://www.w3.org/2000/svg"
 width="250.000000pt" height="150.000000pt" viewBox="0 0 250.000000 150.000000"
 preserveAspectRatio="xMidYMid meet">

<g transform="translate(0.000000,150.000000) scale(0.100000,-0.100000)"
fill="#000000" stroke="none">
<path d="M380 1280 c-35 -60 -68 -110 -74 -110 -5 0 -56 25 -112 55 -57 30
-105 55 -107 55 -3 0 -2 -33 1 -72 3 -53 12 -85 30 -118 26 -45 26 -45 2 -25
l-23 20 7 -49 c3 -27 6 -57 6 -67 0 -16 4 -15 43 6 69 39 168 58 304 58 106 0
120 2 115 16 -4 11 2 10 19 -6 13 -11 44 -26 69 -33 25 -6 64 -23 88 -36 l42
-25 0 29 c0 16 3 51 6 78 l7 49 -22 -19 c-27 -25 -27 -18 4 35 18 33 25 59 25
102 l0 59 -104 -56 c-57 -31 -109 -56 -114 -56 -6 0 -39 49 -74 110 -35 60
-65 110 -68 110 -3 0 -35 -49 -70 -110z m116 -123 c3 -9 -4 -30 -16 -47 l-21
-30 -27 32 c-30 35 -30 39 0 81 l21 29 18 -23 c10 -13 21 -32 25 -42z m244
-35 c0 -45 -2 -49 -34 -65 -39 -18 -36 -21 -50 45 -5 24 -2 30 31 47 21 11 41
20 46 21 4 0 7 -22 7 -48z m-540 12 c35 -23 38 -29 33 -58 -3 -17 -7 -33 -9
-35 -6 -6 -77 23 -75 32 0 4 1 25 1 47 0 22 2 40 5 40 3 0 23 -12 45 -26z"/>
<path d="M177 933 c-12 -20 -18 -81 -8 -87 11 -7 165 -36 189 -36 8 0 12 9 10
23 -2 16 -22 32 -73 58 -81 42 -111 53 -118 42z"/>
<path d="M610 897 c-65 -32 -86 -47 -88 -64 -2 -14 2 -23 10 -23 33 0 183 31
191 39 11 11 -4 83 -18 88 -6 1 -48 -16 -95 -40z"/>
<path d="M105 804 c9 -90 19 -124 37 -124 10 0 9 -3 -1 -9 -12 -8 -12 -15 -1
-43 26 -67 92 -155 134 -177 23 -12 31 -20 19 -17 -20 4 -21 2 -8 -18 15 -23
82 -81 128 -110 35 -24 65 -12 138 54 52 46 53 48 24 44 -25 -3 -23 -1 17 18
71 34 157 157 182 261 6 26 5 27 -21 21 l-28 -7 33 35 c29 31 32 40 32 93 l-1
60 -35 -40 c-38 -42 -83 -124 -104 -188 l-12 -39 -22 20 c-11 11 -36 27 -53
36 -18 9 -33 23 -33 31 0 20 -7 19 -37 -5 -34 -27 -59 -25 -100 6 l-33 25 0
-25 c0 -16 -6 -26 -15 -26 -8 0 -30 -13 -48 -30 -19 -16 -37 -30 -40 -30 -2 0
-7 14 -11 30 -13 68 -102 215 -138 229 -6 2 -7 -25 -3 -75z m478 -205 c49 -13
50 -44 3 -93 -54 -58 -100 -39 -65 26 10 19 9 20 -17 12 -38 -10 -83 -11 -113
0 -20 7 -23 6 -17 -9 17 -46 18 -65 3 -65 -34 0 -69 26 -89 64 -19 37 -19 40
-3 52 10 7 38 16 64 19 25 4 53 8 61 10 22 5 129 -5 173 -16z"/>
<path d="M880 851 c0 -11 5 -23 10 -26 6 -3 10 -24 10 -46 0 -21 -4 -39 -10
-39 -5 0 -10 -11 -10 -25 0 -24 3 -25 60 -25 108 0 160 41 145 112 -11 49 -48
68 -131 68 -67 0 -74 -2 -74 -19z m138 -59 c4 -26 -13 -52 -34 -52 -10 0 -14
13 -14 41 0 36 2 40 23 37 14 -2 23 -11 25 -26z"/>
<path d="M1110 845 c0 -14 5 -25 10 -25 6 0 10 -18 10 -40 0 -22 -4 -40 -10
-40 -5 0 -10 -11 -10 -25 0 -24 2 -25 75 -25 l75 0 0 31 c0 32 1 32 -47 12 -8
-3 -13 3 -13 17 0 16 4 20 15 16 10 -4 15 1 15 14 0 13 -5 18 -15 14 -11 -4
-15 0 -15 16 0 22 0 22 48 3 8 -3 12 5 12 26 l0 31 -75 0 c-73 0 -75 -1 -75
-25z"/>
<path d="M1294 780 l0 -90 73 0 73 0 0 31 c0 27 -3 30 -22 24 -37 -12 -42 -11
-46 8 -3 15 0 18 17 12 17 -5 21 -2 21 15 0 17 -4 20 -21 15 -17 -6 -20 -3
-17 12 4 19 9 20 46 8 19 -6 22 -3 22 24 l0 31 -73 0 -73 0 0 -90z"/>
<path d="M1460 840 c0 -28 2 -30 22 -19 21 11 21 11 14 -60 l-6 -71 45 0 45 0
-6 71 c-7 71 -7 71 14 60 20 -11 22 -9 22 19 l0 30 -75 0 -75 0 0 -30z"/>
<path d="M1644 780 l0 -90 68 0 68 0 0 30 c0 28 -2 29 -26 20 -34 -13 -34 -13
-34 11 0 15 5 19 15 15 10 -4 15 1 15 14 0 13 -5 18 -15 14 -10 -4 -15 0 -15
15 0 24 0 24 34 11 24 -9 26 -8 26 20 l0 30 -68 0 -68 0 0 -90z"/>
<path d="M1810 846 c0 -14 5 -28 10 -31 6 -3 10 -19 10 -35 0 -16 -4 -32 -10
-35 -5 -3 -10 -17 -10 -31 0 -23 2 -24 75 -24 l75 0 0 31 c0 26 -3 30 -17 24
-32 -13 -47 -10 -51 9 -3 15 0 18 17 13 16 -4 21 0 21 13 0 13 -5 17 -21 13
-17 -5 -20 -2 -17 13 4 19 19 22 51 9 14 -6 17 -2 17 24 l0 31 -75 0 c-73 0
-75 -1 -75 -24z"/>
<path d="M905 555 c-27 -26 -32 -68 -14 -108 26 -57 149 -67 149 -12 0 21 -4
23 -33 18 -38 -6 -60 13 -55 49 3 20 8 23 46 21 38 -2 42 0 42 22 0 27 -17 35
-71 35 -29 0 -47 -7 -64 -25z"/>
<path d="M1084 490 l0 -90 63 0 63 0 0 30 c0 29 -13 40 -25 20 -3 -5 -11 -10
-17 -10 -7 0 -9 22 -4 70 l6 70 -43 0 -43 0 0 -90z"/>
<path d="M1275 569 c-45 -26 -57 -71 -34 -123 24 -51 134 -61 171 -16 23 29
23 91 0 120 -21 26 -104 38 -137 19z m83 -75 c2 -21 -2 -33 -12 -37 -26 -10
-46 4 -46 32 0 34 8 43 35 39 14 -2 21 -12 23 -34z"/>
<path d="M1450 550 c0 -30 13 -40 25 -20 4 6 11 8 16 5 12 -8 12 -85 -1 -85
-5 0 -10 -11 -10 -25 0 -23 3 -25 50 -25 46 0 50 2 50 24 0 14 -4 28 -10 31
-13 8 -13 72 -1 80 5 3 12 1 16 -5 12 -20 25 -10 25 20 l0 30 -80 0 -80 0 0
-30z"/>
<path d="M1630 555 c0 -14 5 -25 10 -25 6 0 10 -18 10 -40 0 -22 -4 -40 -10
-40 -5 0 -10 -11 -10 -25 0 -23 3 -25 51 -25 l52 0 -7 40 c-6 39 -6 40 24 40
30 0 30 -1 24 -40 l-7 -40 52 0 c48 0 51 2 51 25 0 14 -4 25 -10 25 -5 0 -10
18 -10 40 0 22 5 40 10 40 6 0 10 11 10 25 0 23 -3 25 -51 25 l-52 0 7 -40 c6
-39 6 -40 -24 -40 -30 0 -30 1 -24 40 l7 40 -52 0 c-48 0 -51 -2 -51 -25z"/>
<path d="M1904 490 l0 -90 41 0 41 0 0 90 0 90 -41 0 -41 0 0 -90z"/>
<path d="M2034 490 l0 -90 29 0 c29 0 29 1 23 43 l-6 42 30 -35 c17 -19 30
-38 30 -42 0 -4 20 -8 45 -8 41 0 45 2 45 25 0 14 -4 25 -10 25 -5 0 -10 18
-10 40 0 22 5 40 10 40 6 0 10 11 10 25 0 22 -4 25 -35 25 -30 0 -35 -3 -35
-23 0 -13 5 -28 11 -34 6 -6 8 -17 4 -23 -5 -8 -18 4 -37 34 -27 41 -34 46
-67 46 l-37 0 0 -90z"/>
<path d="M2286 559 c-21 -17 -26 -29 -26 -65 0 -78 64 -115 144 -84 22 8 26
16 26 50 0 39 -1 40 -35 40 -24 0 -35 -5 -35 -15 0 -8 5 -15 10 -15 6 0 10 -4
10 -10 0 -18 -39 -10 -50 10 -8 14 -8 26 0 41 10 17 17 20 51 14 37 -6 39 -5
39 18 0 14 -7 28 -16 31 -34 13 -92 6 -118 -15z"/>
</g>
</svg>
